<svg xmlns="http://www.w3.org/2000/svg" width="43" height="43" fill="none" viewBox="0 0 43 43"><rect width="41" height="41" x="1" y="1" fill="#fff" fill-opacity=".2" rx="20.5"/><rect width="42" height="42" x=".5" y=".5" stroke="#fff" rx="21"/><mask id="m" fill="#fff"><path fill-rule="evenodd" d="M33.716 24.216A13 13 0 0 1 31 24.5c-7.18 0-13-5.82-13-13 0-.931.098-1.84.284-2.716C12.408 10.033 8 15.252 8 21.5c0 7.18 5.82 13 13 13 6.248 0 11.467-4.408 12.716-10.284Z" clip-rule="evenodd"/></mask><path fill="#fff" d="m33.716 24.216.978.208.32-1.506-1.506.32.208.978ZM18.284 8.784l.978.208.32-1.506-1.506.32.208.978ZM33.508 23.238A12 12 0 0 1 31 23.5v2c1.002 0 1.98-.105 2.924-.306l-.416-1.956ZM31 23.5c-6.627 0-12-5.373-12-12h-2c0 7.732 6.268 14 14 14v-2ZM19 11.5c0-.861.09-1.7.262-2.508l-1.956-.416A14 14 0 0 0 17 11.5h2ZM9 21.5c0-5.766 4.068-10.585 9.492-11.738l-.416-1.956C11.748 9.151 7 14.77 7 21.5h2ZM21 33.5c-6.627 0-12-5.373-12-12H7c0 7.732 6.268 14 14 14v-2Zm11.738-9.492C31.585 29.432 26.767 33.5 21 33.5v2c6.73 0 12.35-4.748 13.694-11.076l-1.956-.416Z" mask="url(#m)"/></svg>
